<svg xmlns="http://www.w3.org/2000/svg" version="1.1" xmlns:xlink="http://www.w3.org/1999/xlink" xmlns:svgjs="http://svgjs.dev/svgjs" width="1500" height="1500" viewBox="0 0 1500 1500"><rect width="1500" height="1500" fill="#0f6b42"></rect><g transform="matrix(0.6666666666666666,0,0,0.6666666666666666,249.39393939393932,647.5127509092025)"><svg viewBox="0 0 396 81" data-background-color="#0f6b42" preserveAspectRatio="xMidYMid meet" height="306" width="1500" xmlns="http://www.w3.org/2000/svg" xmlns:xlink="http://www.w3.org/1999/xlink"><g id="tight-bounds" transform="matrix(1,0,0,1,0.24000000000003752,0.19346655075784724)"><svg viewBox="0 0 395.5199999999999 80.61306689848429" height="80.61306689848429" width="395.5199999999999"><g><svg viewBox="0 0 550.2471528613551 112.14884340694006" height="80.61306689848429" width="395.5199999999999"><g transform="matrix(1,0,0,1,154.72715286135505,34.65562044164038)"><svg viewBox="0 0 395.52000000000004 42.83760252365931" height="42.83760252365931" width="395.52000000000004"><g id="textblocktransform"><svg viewBox="0 0 395.52000000000004 42.83760252365931" height="42.83760252365931" width="395.52000000000004" id="textblock"><g><svg viewBox="0 0 395.52000000000004 42.83760252365931" height="42.83760252365931" width="395.52000000000004"><g transform="matrix(1,0,0,1,0,0)"><svg width="395.52000000000004" viewBox="2.05 -35.55 332.82 36.05" height="42.83760252365931" data-palette-color="#d0d823"><path d="M19.5-0.5L19.5-0.5Q21.95-0.5 22.63-1.4 23.3-2.3 23.3-4.45L23.3-4.45 23.3-14.15 20.1-14.15 20.1-15.25 34.5-15.25 34.5-14.15 32.55-14.15 32.55-0.05 31.8-0.05Q30.9-1.3 29.25-1.3L29.25-1.3Q28.55-1.3 25.08-0.4 21.6 0.5 19.15 0.5L19.15 0.5Q11 0.5 6.53-3.9 2.05-8.3 2.05-17.13 2.05-25.95 6.73-30.75 11.4-35.55 19.3-35.55L19.3-35.55Q22.35-35.55 25.43-34.77 28.5-34 29-34 29.5-34 29.75-34.23 30-34.45 30.3-35L30.3-35 30.85-35 31.25-24.15 30.35-24.15Q27.9-29 25.43-31.78 22.95-34.55 19.9-34.55L19.9-34.55Q12.25-34.55 12.25-19.6L12.25-19.6 12.25-15.65Q12.25-8.15 14.13-4.33 16-0.5 19.5-0.5ZM52.55-17.7L52.55-17.7 49.9-17.7 49.9-0.95 53.15-0.95 53.15 0 36.9 0 36.9-0.95 40.15-0.95 40.15-34.05 36.9-34.05 36.9-35 52-35Q58.5-35 61.22-34.33 63.95-33.65 65.05-32.7L65.05-32.7Q67.45-30.75 67.45-26.5 67.45-22.25 65.35-20.43 63.25-18.6 58.95-18.25L58.95-18.25 58.95-18.1Q63-17.55 64.6-15.7 66.2-13.85 66.2-9.5L66.2-9.5 66.2-6.85Q66.2-4.25 66.47-3.35 66.75-2.45 67.65-2.45 68.55-2.45 69.07-3.28 69.6-4.1 70.05-6.75L70.05-6.75 70.9-6.65Q70.35-2.4 68.97-0.95 67.6 0.5 63.5 0.5 59.4 0.5 57.67-1.43 55.95-3.35 55.95-8.65L55.95-8.65 55.95-12.3Q55.95-15.1 55.22-16.4 54.5-17.7 52.55-17.7ZM51.55-34.05L49.9-34.05 49.9-18.65 51.5-18.65Q54.35-18.65 55.72-20.4 57.1-22.15 57.1-26.1L57.1-26.1 57.1-27.55Q57.1-31.5 55.77-32.77 54.45-34.05 51.55-34.05L51.55-34.05ZM73-33.9L73-35 99-35 99.5-25.1 98.6-25.1Q96.5-30.15 94.2-32.02 91.9-33.9 87.45-33.9L87.45-33.9 85.7-33.9 85.7-18.45 87.4-18.45Q89.75-18.45 91.35-20.23 92.95-22 93.6-25L93.6-25 94.35-25 94.35-10.2 93.5-10.2Q92.6-13.95 91.07-15.55 89.55-17.15 86.9-17.15L86.9-17.15 85.7-17.15 85.7-1.1 87.6-1.1Q92.2-1.1 95.42-3.85 98.65-6.6 99.85-10.9L99.85-10.9 100.85-10.9 100.45 0 73 0 73-1.1 75.95-1.1 75.95-33.9 73-33.9ZM104.19-33.9L104.19-35 130.19-35 130.69-25.1 129.79-25.1Q127.69-30.15 125.39-32.02 123.09-33.9 118.64-33.9L118.64-33.9 116.89-33.9 116.89-18.45 118.59-18.45Q120.94-18.45 122.54-20.23 124.14-22 124.79-25L124.79-25 125.54-25 125.54-10.2 124.69-10.2Q123.79-13.95 122.27-15.55 120.74-17.15 118.09-17.15L118.09-17.15 116.89-17.15 116.89-1.1 118.79-1.1Q123.39-1.1 126.62-3.85 129.84-6.6 131.04-10.9L131.04-10.9 132.04-10.9 131.64 0 104.19 0 104.19-1.1 107.14-1.1 107.14-33.9 104.19-33.9ZM166.59-34.05L163.84-34.05 163.84 0 156.84 0 139.69-32.35 139.69-0.95 142.44-0.95 142.44 0 135.59 0 135.59-0.95 138.34-0.95 138.34-34.05 135.59-34.05 135.59-35 149.39-35 162.49-9.9 162.49-34.05 159.74-34.05 159.74-35 166.59-35 166.59-34.05ZM177.89-33.9L177.89-35 195.89-35 195.89-33.9 190.59-33.9 190.59-1.1 192.39-1.1Q196.64-1.1 199.16-3.7 201.69-6.3 204.29-11.7L204.29-11.7 205.34-11.7 204.39 0 177.89 0 177.89-1.1 180.84-1.1 180.84-33.9 177.89-33.9ZM213.21 0.5Q211.03 0.5 209.96-0.78 208.88-2.05 208.88-3.88 208.88-5.7 210.01-6.95 211.13-8.2 213.18-8.2 215.23-8.2 216.43-7.15 217.63-6.1 217.63-4 217.63-1.9 216.51-0.7 215.38 0.5 213.21 0.5ZM228.48-34.05L236.88-9.05 245.58-34.05 241.68-34.05 241.68-35 249.33-35 249.33-34.05 246.98-34.05 234.93 0.5 230.73 0.5 217.98-34.05 215.68-34.05 215.68-35 232.03-35 232.03-34.05 228.48-34.05ZM250.88-34.05L250.88-35 266.13-35 266.13-34.05 263.38-34.05 263.38-0.95 266.13-0.95 266.13 0 250.88 0 250.88-0.95 253.63-0.95 253.63-34.05 250.88-34.05ZM299.63-34.05L296.88-34.05 296.88 0 289.88 0 272.73-32.35 272.73-0.95 275.48-0.95 275.48 0 268.63 0 268.63-0.95 271.38-0.95 271.38-34.05 268.63-34.05 268.63-35 282.43-35 295.53-9.9 295.53-34.05 292.78-34.05 292.78-35 299.63-35 299.63-34.05ZM319.87-0.5L319.87-0.5Q322.32-0.5 323-1.4 323.67-2.3 323.67-4.45L323.67-4.45 323.67-14.15 320.47-14.15 320.47-15.25 334.87-15.25 334.87-14.15 332.92-14.15 332.92-0.05 332.17-0.05Q331.27-1.3 329.62-1.3L329.62-1.3Q328.92-1.3 325.45-0.4 321.97 0.5 319.52 0.5L319.52 0.5Q311.37 0.5 306.9-3.9 302.42-8.3 302.42-17.13 302.42-25.95 307.1-30.75 311.77-35.55 319.67-35.55L319.67-35.55Q322.72-35.55 325.8-34.77 328.87-34 329.37-34 329.87-34 330.12-34.23 330.37-34.45 330.67-35L330.67-35 331.22-35 331.62-24.15 330.72-24.15Q328.27-29 325.8-31.78 323.32-34.55 320.27-34.55L320.27-34.55Q312.62-34.55 312.62-19.6L312.62-19.6 312.62-15.65Q312.62-8.15 314.5-4.33 316.37-0.5 319.87-0.5Z" opacity="1" transform="matrix(1,0,0,1,0,0)" fill="#d0d823" class="wordmark-text-0" data-fill-palette-color="primary" id="text-0"></path></svg></g></svg></g></svg></g></svg></g><g><svg viewBox="0 0 144.61422300797966 112.14884340694006" height="112.14884340694006" width="144.61422300797966"><g><svg xmlns="http://www.w3.org/2000/svg" xmlns:xlink="http://www.w3.org/1999/xlink" version="1.1" x="0" y="0" viewBox="0.7510000000000403 11.170999999999975 98.15300000000002 76.11799999999997" enable-background="new 0 0 100 100" xml:space="preserve" height="112.14884340694006" width="144.61422300797966" class="icon-icon-0" data-fill-palette-color="accent" id="icon-0"><path d="M33.521 56.511h-0.058l-0.036-0.189c0.021 0.065 0.049 0.124 0.088 0.183L33.521 56.511z" fill="#d0d823" data-fill-palette-color="accent"></path><path d="M46.668 37.438c-0.299 0.177-0.49 0.323-0.546 0.366C46.179 37.739 46.356 37.57 46.668 37.438z" fill="#d0d823" data-fill-palette-color="accent"></path><path d="M48.965 50.827c-0.008 0.013-0.015 0.021-0.015 0.028l-0.009 0.013c0 0-0.239 0.142-0.67 0.375 0-0.007 0.007-0.007 0.007-0.015 0.081-0.123 0.161-0.256 0.241-0.389 0.137-0.007 0.282-0.013 0.431-0.013 0 0 0 0 0.007 0H48.965z" fill="#d0d823" data-fill-palette-color="accent"></path><path d="M49.613 49.166c-0.016 0.044-0.029 0.086-0.044 0.132h-0.042C49.555 49.252 49.583 49.209 49.613 49.166z" fill="#d0d823" data-fill-palette-color="accent"></path><path d="M77.437 66.029c0 0.005-0.007 0.013-0.007 0.013-0.038 0.06-0.104 0.142-0.198 0.221 0.074-0.091 0.131-0.161 0.175-0.215C77.412 66.042 77.421 66.029 77.437 66.029z" fill="#d0d823" data-fill-palette-color="accent"></path><path d="M72.838 35.789c-0.149-0.095-0.256-0.146-0.294-0.161C72.591 35.628 72.712 35.657 72.838 35.789z" fill="#d0d823" data-fill-palette-color="accent"></path><path d="M41.675 54.609c-0.625 0.293-1.267 0.59-1.916 0.873 0.796-0.918 1.283-1.509 1.283-1.509L41.675 54.609z" fill="#d0d823" data-fill-palette-color="accent"></path><path d="M48.95 50.827v0.028l-0.009 0.013c0 0-0.239 0.142-0.67 0.375 0-0.007 0.007-0.007 0.007-0.015 0.081-0.123 0.161-0.256 0.241-0.389C48.657 50.833 48.802 50.827 48.95 50.827z" fill="#d0d823" data-fill-palette-color="accent"></path><path d="M94.736 72.062c-0.759 0.204-5.654-1.415-7.034-1.602-1.374-0.199 0 0 0.389 0.823 0.378 0.822-1.254-0.779-2.922-1.773-1.669-0.989-2.649-0.115-2.649-0.115s0.542 2.085-0.734 0.083c-0.158-0.267-0.392-0.513-0.668-0.746-0.768-0.643-1.867-1.145-2.873-1.507 0.351 0.071 0.715 0.139 1.088 0.181 0.021 0.007 0.049 0.007 0.07 0.007 0.721 0.096 1.461 0.123 2.107 0.029 0.363-0.051 0.7-0.146 0.982-0.276 2.18-1.036 0.569 0.443 0.569 0.443s0.343 1.253 2.301 1.274c1.962 0.032 4.222-0.472 3.441 0.023-0.778 0.503-2.048-0.059-0.778 0.503 1.276 0.548 6.296 1.733 6.819 2.288l3.564 1.201 0.495 0.109c-2.2-1.208-4.576-4.235-6.047-4.627-1.393-0.377 1.558-1.478 1.746-1.605-0.027 0-0.166 0.047-0.474 0.135-1.988 0.598-6.003-0.123-6.099-0.656-0.095-0.524 1.619-1.246 1.749-1.306-0.248 0.039-4.708 0.796-5.751 0.081-0.748-0.524-0.509-1.093-0.31-1.379-0.033 0.009-0.055 0.009-0.082 0-0.962 0.672-2.987 1.4-4.752 1.955-0.408-1.565-0.669-3.383 0.687-2.587 0.838 0.488 2.315 0.627 4.065 0.632 0.082-0.049 0.152-0.101 0.212-0.152-0.037 0.035-0.081 0.09-0.13 0.152 3.029 0.037 6.847-0.238 9.567 0.453l-0.759-0.48-5.938-2.878c-1.415 0.13-9.075-4.665-11.377-5.505-2.288-0.831 0 0 0.248 1.736 0.233 1.735-1.771-1.938-4.154-4.437-2.389-2.5-4.532-1.117-4.532-1.117s-0.014 0.389-0.065 0.816v0.009c-0.111 0.932-0.401 2.017-1.15-0.569-0.03-0.109-0.067-0.225-0.096-0.343-0.145-0.568-0.432-1.137-0.781-1.684-0.996-1.515-2.65-2.871-4.21-3.928 1.725 0.794 3.736 1.486 5.552 1.54 0.656 0.02 1.276-0.045 1.844-0.213 4.315-1.283 0.766 1.065 0.766 1.065s-0.052 2.557 3.332 3.271c3.387 0.714 7.555 0.487 5.953 1.202-1.605 0.706-3.514-0.803-1.605 0.706 1.926 1.51 10.029 5.515 10.655 6.784l5.561 3.543 0.802 0.387c-3.198-3.105-5.765-9.829-8.112-11.085-2.774-1.486 6.728-2.915 2.966-2.441-2.535 0.327-6.317-0.822-8.501-1.931 3.365-0.053 7.264-0.459 7.462-2.084 0.114-0.97 0.193-1.611 0.248-2.041 1.419-0.357 4.371-1.042 5.508-0.808-0.096-0.022-0.859-0.256-0.495-1.086 0.371-0.859 3.432-1.998 3.629-2.077-0.147 0.014-1.458 0.152-1.597-0.212-0.145-0.386 2.101-2.353 3.577-2.697 1.48-0.348-2.279 0.454-1.369-0.496 0.779-0.8 1.101-3.693 2.019-5.313l-0.271 0.271-1.776 2.105c-0.117 0.568-2.812 3.207-3.396 4.043-0.584 0.839 0 0 0.675 0.045 0.68 0.035-0.931 0.539-2.149 1.282-1.216 0.75-0.945 1.698-0.945 1.698s1.582 0.38-0.189 0.51c-0.233 0.015-0.48 0.081-0.721 0.176-0.686 0.277-1.393 0.815-1.97 1.354 0.495-0.619 0.998-1.354 1.224-2.069 0.088-0.254 0.14-0.503 0.14-0.737 0.022-1.8 0.49-0.218 0.49-0.218s0.954 0.218 1.615-1.057c0.664-1.275 1.071-2.936 1.151-2.252 0.08 0.686-0.713 1.326 0.08 0.686 0.788-0.634 3.244-3.512 3.791-3.66l1.98-1.908 0.242-0.291c-1.545 1.019-4.366 1.507-5.117 2.331-0.881 0.978-0.306-2.871-0.561-1.354-0.264 1.515-2.07 3.893-2.462 3.767-0.381-0.124-0.301-1.502-0.301-1.604-0.05 0.177-1.011 3.367-1.835 3.797-0.713 0.364-1.015-0.204-1.085-0.393 0.238 1.078-0.155 3.66-0.438 5.188-0.22 0.102-0.445 0.394-0.59 1.071v0.008c-0.068 0.307-0.117 0.685-0.147 1.158-0.107 1.959-4.401 2.193-7.688 2.083l-0.006-0.007h-0.021c-0.302-0.241-0.46-0.46-0.446-0.634 0.109-1.042 3.447-1.88 3.709-1.946-0.45-0.006-8.569-0.028-10.012-1.784-0.795-0.97-0.576-1.801-0.198-2.347 0.999-0.656 1.765-1.356 1.997-2.07 0.633-1.938-0.115-2.834-0.583-3.177 0.271 0.284 0.512 0.992 0 2.783-0.276 0.971-1.333 1.837-2.616 2.559-0.007 0-0.014 0.008-0.021 0.008-3.594 1.179-9.67 1.917-12.396 2.201-0.277-0.139-0.604-0.264-1.006-0.364-0.679-0.167-1.438 0.072-2.237 0.598 1.318-2.908 4.264-8.644 6.646-7.792 0.911 0.329 1.537 0.131 1.976-0.32 2.796-0.182 9.115-0.473 11.5 0.436-0.301-0.145-1.654-0.902-0.885-2.368 0.846-1.586 7.171-2.726 7.573-2.804-0.306-0.021-2.974-0.234-3.213-1.029-0.27-0.839 4.464-3.941 7.505-4.082 3.04-0.138-4.67 0.046-2.726-1.516 1.646-1.317 2.566-7.032 4.585-9.932l-0.577 0.429-3.796 3.579c-0.291 1.101-6.014 5.393-7.279 6.865-1.262 1.458 0 0 1.376 0.334 1.378 0.342-1.944 0.745-4.49 1.779-2.542 1.042-2.083 3.061-2.083 3.061s3.17 1.363-0.431 0.948c-0.474-0.059-0.975-0.015-1.478 0.086-1.422 0.293-2.902 1.123-4.126 1.976 1.071-1.057 2.15-2.354 2.689-3.694 0.188-0.482 0.313-0.963 0.343-1.444 0.217-3.601 1.013-0.254 1.013-0.254s1.915 0.809 3.381-1.508c1.473-2.319 2.448-5.503 2.544-4.097 0.103 1.407-1.566 2.389 0.103 1.407 1.654-0.983 6.907-5.846 8.037-5.941l4.197-3.097 0.517-0.487c-3.221 1.472-9.008 1.378-10.594 2.763-1.89 1.63-0.358-5.904-1.03-2.945-0.661 2.959-4.56 7.061-5.341 6.653-0.758-0.384-0.474-3.133-0.458-3.344-0.124 0.334-2.368 6.399-4.089 6.952-1.647 0.524-2.135-1.087-2.193-1.304 0.532 2.602-1.041 9.276-1.67 11.762-0.318 0.042-0.689 0.014-1.121-0.111-2.966-0.867-7.943 10.231-7.943 10.231l0.051 0.03c-0.597 0.59-1.194 1.275-1.786 2.027-0.071 0.094-0.152 0.188-0.224 0.29 0.916-2.973 1.863-6.951 1.071-8.818l0.057-0.006c0 0-2.39-10.829-5.465-12.279-0.576-1.902-1.64-5.75-1.414-7.273-0.05 0.196-0.344 1.108-1.429 0.649-1.171-0.489-2.898-4.563-3.016-4.825 0.036 0.204 0.304 1.945-0.184 2.135-0.509 0.197-3.288-2.77-3.846-4.744-0.562-1.968 0.749 3.039-0.585 1.829-1.123-1.021-5.034-1.42-7.256-2.623l0.371 0.357 2.942 2.338c0.774 0.152 4.491 3.725 5.648 4.488 1.16 0.774 0 0 0.017-0.91 0.005-0.903 0.786 1.248 1.857 2.856 1.079 1.625 2.34 1.254 2.34 1.254s0.415-2.113 0.7 0.239c0.028 0.313 0.131 0.642 0.276 0.963 0.415 0.911 1.188 1.843 1.937 2.609-0.859-0.656-1.881-1.313-2.85-1.612-0.348-0.107-0.684-0.174-1.004-0.174-2.413-0.016-0.321-0.649-0.321-0.649s0.233-1.276-1.524-2.15c-1.755-0.875-4.009-1.392-3.089-1.5 0.919-0.117 1.824 0.933 0.919-0.117-0.912-1.049-4.928-4.292-5.159-5.021l-2.689-2.616-0.401-0.32c1.465 2.039 2.29 5.808 3.447 6.791 1.371 1.166-3.84 0.445-1.785 0.773s5.365 2.71 5.218 3.243c-0.146 0.503-1.998 0.416-2.144 0.408 0.24 0.073 4.585 1.319 5.218 2.419 0.597 1.049-0.393 1.421-0.524 1.465 1.152-0.306 3.776-0.006 5.844 0.306-0.423 0.269-0.343 0.488 1.276 0.408 2.9-0.139 4.766 7.127 5.423 10.151-1.305-0.626-2.523-0.459-3.412-0.138-1.814-1.515-9.294-7.856-10.8-11.112 0.138 0.385 0.663 2.214-1.334 2.804-2.173 0.641-8.84-3.854-9.278-4.14 0.256 0.285 2.45 2.784 1.969 3.682-0.509 0.954-7.521-0.459-10.361-2.981-2.844-2.508 4.217 4.015 1.085 3.681-2.655-0.284-8.57 3.854-12.958 4.619l0.889 0.124 6.597 0.197c1.237-0.692 10.187 0.546 12.628 0.373 2.436-0.168 0 0-0.934-1.487-0.924-1.488 2.406 1.048 5.603 2.354 3.208 1.312 4.6-0.838 4.6-0.838s-1.626-3.928 1.232-0.452c0.373 0.467 0.854 0.868 1.398 1.217 1.531 0.969 3.594 1.538 5.451 1.859-1.9-0.015-4.03 0.174-5.697 0.867-0.606 0.255-1.152 0.56-1.596 0.955-3.412 2.929-1.139-0.662-1.139-0.662s-0.99-2.355-4.373-1.626c-3.387 0.735-7.099 2.644-5.923 1.349 1.165-1.312 3.533-0.715 1.165-1.312-2.367-0.583-11.405-0.933-12.49-1.83l-6.522-0.963-0.896-0.021c4.191 1.522 9.285 6.616 11.943 6.799 3.141 0.218-4.948 5.414-1.711 3.439 3.234-1.981 10.375-2.164 10.718-1.129 0.329 0.991-2.375 3.119-2.587 3.286 0.417-0.182 7.834-3.477 9.869-2.463 1.938 0.971 0.938 2.793 0.793 3.032 2.172-3.191 11.967-8.737 12.972-9.299 0.023-0.015 0.037-0.021 0.052-0.029-0.007 0-0.023-0.021-0.044-0.037h-0.007c-0.016-0.007-0.023-0.022-0.037-0.03 0.65 0.038 1.51 0.271 2.616 0.919 2.377 1.391 0.336 7.855-0.822 10.982-0.016 0.044-0.029 0.086-0.044 0.132h-0.042c-9.132 0.305-16.276 2.943-16.276 6.164 0 0.293 0.177 0.86 0.177 0.86s0.916-4.766 13.809-5.429c-3.279 1.758-9.948 5.116-13.715 5.618h-0.058v0.007c-1.188 0.147-2.082 0.009-2.479-0.576-0.908-1.332-1.806-1.9-2.528-2.104-0.007-0.006-0.014-0.006-0.014-0.006-1.559-0.891-5.458-3.201-6.378-4.564 0.066 0.109 0.583 1.042-0.576 1.479-1.195 0.444-5.239-1.34-5.501-1.449 0.16 0.123 1.545 1.208 1.326 1.675-0.233 0.504-4.299 0.238-6.056-0.815-0.248-0.146-0.371-0.219-0.416-0.234 0.182 0.19 2.682 1.946 1.247 1.967-1.523 0.022-4.642 2.414-7.092 3.054l0.52 0.008 3.751-0.315c0.665-0.406 5.817-0.354 7.187-0.596 1.369-0.228 0 0-0.611-0.662-0.613-0.672 1.419 0.363 3.314 0.803 1.896 0.441 2.558-0.693 2.558-0.693s-1.144-1.824 0.672-0.294c0.24 0.198 0.537 0.364 0.866 0.504 0.927 0.38 2.128 0.532 3.2 0.575-1.079 0.11-2.273 0.328-3.186 0.773-0.327 0.159-0.619 0.344-0.852 0.561-1.764 1.646-0.677-0.249-0.677-0.249s-0.7-1.093-2.581-0.523c-1.872 0.562-3.876 1.726-3.279 1.021 0.583-0.716 1.958-0.569 0.583-0.716-1.377-0.14-6.522 0.25-7.194-0.123l-3.751-0.065-0.512 0.044c2.464 0.486 5.648 2.659 7.164 2.586 1.793-0.085-2.5 2.952-0.772 1.785 1.721-1.166 5.765-1.69 6.02-1.209 0.241 0.467-1.166 1.669-1.275 1.764 0.219-0.109 4.242-2.178 5.451-1.807 1.093 0.327 0.743 1.195 0.642 1.398 0.845-1.312 4.117-3.562 5.82-4.679 0.615 0.569 1.43 1.414 2.384 2.623 0.476 0.604 1.685 0.598 3.272 0.219l0.7 3.396c-2.651 2.473-5.465 4.533-7.105 4.102-1.779-0.466-2.82-0.648-3.424-0.699-0.284-0.021-0.475-0.015-0.597 0.011-1.568-0.41-6.181-1.673-7.507-2.765 0.167 0.175 0.728 0.875-0.206 1.545-1.032 0.744-5.405 0.074-5.683 0.035 0.182 0.074 1.808 0.767 1.713 1.276-0.096 0.54-4.082 1.339-6.056 0.781-0.299-0.081-0.438-0.116-0.467-0.116 0.189 0.121 3.104 1.172 1.72 1.572-1.465 0.423-3.855 3.541-6.049 4.794l0.497-0.124 3.542-1.272c0.53-0.578 5.522-1.869 6.784-2.449 1.266-0.584 0 0-0.768-0.488-0.763-0.487 1.475-0.025 3.412-0.088 1.944-0.065 2.288-1.333 2.288-1.333s-1.58-1.465 0.576-0.46c0.285 0.131 0.612 0.219 0.962 0.262 1 0.124 2.195-0.043 3.245-0.277-1.015 0.387-2.114 0.914-2.874 1.574-0.276 0.24-0.509 0.495-0.675 0.768-1.276 2.047-0.722-0.067-0.722-0.067s-0.963-0.865-2.625 0.17c-1.67 1.032-3.295 2.673-2.908 1.835 0.385-0.838 1.75-1.057 0.385-0.838-1.368 0.226-6.237 1.937-6.98 1.757l-3.643 0.908-0.48 0.177c2.506-0.177 6.149 1.1 7.592 0.634 1.414-0.46-0.628 2.223-0.605 2.281 0.03-0.023 0.124-0.131 0.32-0.357 1.365-1.575 5.132-3.14 5.503-2.739 0.35 0.383-0.7 1.923-0.779 2.037 0.189-0.165 3.535-3.21 4.795-3.166 1.209 0.041 1.013 1.077 0.976 1.216 0.415-1.368 2.72-4.141 4.132-5.743 0.014-0.014 0.023-0.022 0.03-0.037 0.021-0.021 0.042-0.042 0.057-0.063 0.029-0.039 0.06-0.067 0.088-0.096 0.021-0.028 0.05-0.067 0.08-0.095 0.094-0.101 0.182-0.213 0.278-0.312 0.007-0.009 0.014-0.025 0.028-0.033 0.088-0.098 0.166-0.193 0.247-0.282-0.035 0.036-0.071 0.082-0.117 0.124 0.053-0.057 0.103-0.116 0.147-0.175 0.007 0 0.007 0.007 0.007 0.007s0 0.005 0.009 0.005h0.008c0.604 0.236 1.813 0.789 3.744 2.059 0.321 0.211 0.772 0.219 1.325 0.071-1.361 2.448-4.079 6.787-5.587 5.642-0.896-0.677-1.386-0.794-1.654-0.707 0.007-0.035 0.007-0.068 0.007-0.096v-0.028c0 0.007-0.007 0.007-0.023 0.015-0.45 0.204-4.546 2.071-6.01 2.019 0.092 0.006 0.895 0.109 0.668 0.989-0.226 0.905-3.06 2.536-3.242 2.646 0.145-0.044 1.415-0.395 1.608-0.058 0.212 0.356-1.681 2.669-3.079 3.251-1.407 0.59 2.17-0.815 1.426 0.26-0.634 0.921-0.474 3.826-1.115 5.569l0.226-0.299 1.4-2.375c0.021-0.577 2.252-3.632 2.688-4.549 0.437-0.918 0 0-0.677 0.073-0.679 0.074 0.831-0.693 1.909-1.623 1.078-0.94 0.656-1.827 0.656-1.827s-1.617-0.117 0.101-0.534c0.227-0.052 0.459-0.159 0.686-0.29 0.626-0.387 1.23-1.044 1.722-1.662-0.396 0.691-0.768 1.499-0.877 2.234-0.036 0.271-0.049 0.526-0.007 0.761 0.271 1.771-0.452 0.29-0.452 0.29s-0.976-0.06-1.421 1.312c-0.443 1.362-0.575 3.068-0.764 2.403-0.191-0.661 0.488-1.418-0.191-0.661-0.667 0.757-2.623 3.998-3.139 4.235l-1.633 2.213-0.196 0.321c1.355-1.262 4.06-2.203 4.665-3.143 0.707-1.106 0.772 2.786 0.778 1.246 0.009-1.542 1.4-4.184 1.808-4.124 0.394 0.057 0.539 1.429 0.553 1.538 0.03-0.183 0.452-3.491 1.195-4.045 0.65-0.487 1.036 0.036 1.131 0.213-0.438-1.064-0.48-3.453-0.424-5.51 0.248 0.168 0.744 0.496 1.678 1.109 1.638 1.077 5.376-5.095 6.581-7.181 1.463-0.692 3.323-2.082 5.168-3.737l4.197 20.187c0 2.33 5.508 4.218 12.301 4.218 6.791 0 12.301-1.888 12.301-4.218l4.779-23c1.414 1.839 2.595 3.724 2.741 3.95-0.116-0.364-1.094-3.54-0.284-4.16 0.275-0.213 1.063 0.072 2.055 0.677 0.066 2.111 0.365 5.971 1.72 6.412 0.612 0.191 1.121 0.156 1.546 0.017 1.173 1.268 4.292 4.753 4.766 6.338-0.029-0.121-0.241-1.164 0.999-1.223 1.274-0.073 4.583 2.858 4.802 3.038-0.117-0.151-1.108-1.611-0.76-1.997 0.382-0.408 4.171 1.072 5.525 2.609 1.356 1.53-1.988-2.419-0.262-1.902 1.457 0.438 5.152-0.895 7.683-0.772l-0.49-0.161L94.736 72.062zM46.122 37.804c0.057-0.065 0.234-0.234 0.546-0.366C46.37 37.616 46.179 37.761 46.122 37.804zM56.985 44.574c0.322 0.67 0.761 1.61 1.248 2.675 0.035 0.081 0.072 0.16 0.11 0.248 0.342 0.757 0.699 1.58 1.055 2.433-2.441-0.421-5.195-0.663-8.109-0.663-0.161 0-0.322 0-0.483 0.015C52.729 46.476 55.013 44.093 56.985 44.574zM51.289 61.656c-5.218 0-9.925-0.766-13.22-1.989 1.641-1.771 3.024-3.542 3.767-4.899l-0.161-0.158c-0.625 0.293-1.267 0.59-1.916 0.873-0.814 0.941-1.959 2.216-3.249 3.537-0.926-0.462-1.675-0.957-2.223-1.487 1.619-0.445 3.549-1.204 5.472-2.05 0.796-0.918 1.283-1.509 1.283-1.509l0.633 0.636c2.852-1.348 5.423-2.727 6.597-3.366 0-0.007 0.007-0.007 0.007-0.015 0.081-0.123 0.161-0.256 0.241-0.389 0.137-0.007 0.282-0.013 0.431-0.013 0 0 0 0 0.007 0h0.008c-0.008 0.013-0.015 0.021-0.015 0.028l-0.009 0.013c0 0-0.239 0.142-0.67 0.375-1.743 2.812-2.966 5.246-2.966 5.246l1.188 0.532c0 0 1.283-2.879 3.104-5.874 0.065-0.109 0.131-0.219 0.198-0.329 0.078-0.007 0.16-0.007 0.241-0.007 0.406 0 0.824 0 1.253 0.007 3.585 0.05 6.457 0.3 8.744 0.68 1.063 2.684 1.946 5.414 1.946 7.031 0.007-0.255 0.182-2.359 2.361-2.079 0.751 0.106 1.727 0.942 2.703 2.029C63.968 60.374 58.066 61.656 51.289 61.656zM77.231 66.263c-0.006 0.005-0.014 0.005-0.014 0.005-0.241 0.198-0.68 0.373-1.475 0.279-0.201-0.022-0.427-0.067-0.682-0.132-1.407-0.373-1.648-3.549-1.662-5.546 1.711 1.139 3.832 3.019 5.048 4.868-0.364 0.109-0.707 0.213-1.018 0.305C77.392 66.102 77.326 66.184 77.231 66.263z" fill="#d0d823" data-fill-palette-color="accent"></path><path d="M41.675 54.609c-0.625 0.293-1.267 0.59-1.916 0.873 0.796-0.918 1.283-1.509 1.283-1.509L41.675 54.609z" fill="#d0d823" data-fill-palette-color="accent"></path><path d="M46.668 37.438c-0.299 0.177-0.49 0.323-0.546 0.366C46.179 37.739 46.356 37.57 46.668 37.438z" fill="#d0d823" data-fill-palette-color="accent"></path><path d="M79.332 67.406c0.021 0.007 0.049 0.007 0.07 0.007C79.483 67.682 79.483 67.721 79.332 67.406z" fill="#d0d823" data-fill-palette-color="accent"></path><path d="M83.85 63.499c-0.037 0.035-0.081 0.09-0.13 0.152-0.033 0.009-0.055 0.009-0.082 0C83.72 63.603 83.79 63.551 83.85 63.499z" fill="#d0d823" data-fill-palette-color="accent"></path><path d="M77.43 66.042c-0.038 0.06-0.104 0.142-0.198 0.221-0.006 0.005-0.014 0.005-0.014 0.005-0.241 0.198-0.68 0.373-1.475 0.279l-0.005-0.009c0-0.009 0-0.009 0-0.009-0.017-0.005-0.022-0.013-0.022-0.018 0.006 0 0.015 0 0.027-0.011 0.185-0.042 0.816-0.208 1.663-0.453C77.412 66.042 77.421 66.042 77.43 66.042z" fill="#d0d823" data-fill-palette-color="accent"></path><path d="M83.85 63.499c-0.037 0.035-0.081 0.09-0.13 0.152-0.033 0.009-0.055 0.009-0.082 0C83.72 63.603 83.79 63.551 83.85 63.499z" fill="#d0d823" data-fill-palette-color="accent"></path></svg></g></svg></g></svg></g><defs></defs></svg><rect width="395.5199999999999" height="80.61306689848429" fill="none" stroke="none" visibility="hidden"></rect></g></svg></g></svg>